<svg width="114" height="114" viewBox="0 0 114 114" fill="none" xmlns="http://www.w3.org/2000/svg">
  <g filter="url(#filter0_b_18_29)">
    <path id="outer-circle" d="M114 57C114 88.4802 88.4802 114 57 114C25.5198 114 0 88.4802 0 57C0 25.5198 25.5198 0 57 0C88.4802 0 114 25.5198 114 57Z" fill="#333333"/>
  </g>
  <path id="text" d="M53.56 91.44C49.976 91.44 46.52 90.96 43.192 90C39.864 88.976 37.08 87.76 34.84 86.352L35.416 72.912H41.368L43.288 84.24C44.76 85.072 46.264 85.68 47.8 86.064C49.4 86.448 51.224 86.64 53.272 86.64C57.816 86.64 61.432 85.648 64.12 83.664C66.808 81.616 68.152 78.736 68.152 75.024C68.152 71.952 67.192 69.584 65.272 67.92C63.416 66.192 60.44 64.528 56.344 62.928L52.6 61.392C47.672 59.472 43.672 57.008 40.6 54C37.592 50.928 36.088 46.96 36.088 42.096C36.088 38.384 37.016 35.216 38.872 32.592C40.792 29.968 43.384 27.952 46.648 26.544C49.912 25.072 53.592 24.336 57.688 24.336C60.888 24.336 63.8 24.784 66.424 25.68C69.048 26.576 71.384 27.792 73.432 29.328L72.856 41.904H67L64.984 31.056C62.616 29.776 59.992 29.136 57.112 29.136C53.464 29.136 50.392 30.064 47.896 31.92C45.4 33.712 44.152 36.4 44.152 39.984C44.152 42.928 45.08 45.36 46.936 47.28C48.856 49.2 51.544 50.832 55 52.176L58.84 53.616C65.112 56.048 69.592 58.8 72.28 61.872C74.968 64.88 76.312 68.656 76.312 73.2C76.312 76.976 75.32 80.24 73.336 82.992C71.416 85.68 68.76 87.76 65.368 89.232C61.976 90.704 58.04 91.44 53.56 91.44Z" fill="white"/>
  <defs>
    <filter id="filter0_b_18_29" x="-4" y="-4" width="122" height="122" filterUnits="userSpaceOnUse" color-interpolation-filters="sRGB">
      <feFlood flood-opacity="0" result="BackgroundImageFix"/>
      <feGaussianBlur in="BackgroundImageFix" stdDeviation="2"/>
      <feComposite in2="SourceAlpha" operator="in" result="effect1_backgroundBlur_18_29"/>
      <feBlend mode="normal" in="SourceGraphic" in2="effect1_backgroundBlur_18_29" result="shape"/>
    </filter>
  </defs>
</svg>